<svg width="147" height="84" viewBox="0 0 147 84" fill="none" xmlns="http://www.w3.org/2000/svg">
<g clip-path="url(#clip0_307_41)">
<path d="M115.839 35.7603C115.839 26.7394 96.8834 18.7776 73.4999 18.7776C50.1164 18.7776 31.1604 26.7396 31.1604 35.7603C31.1604 38.8617 33.4602 41.7945 37.366 44.2728C37.4061 44.2978 37.4463 44.3227 37.4868 44.3473C37.6877 44.4733 37.8936 44.5976 38.1028 44.7212C45.8164 49.197 58.8038 52.1421 73.4998 52.1421C88.0778 52.1421 100.97 49.2428 108.706 44.8275C113.108 42.2424 115.839 39.0664 115.839 35.7603Z" fill="#357466"/>
<path d="M20.2731 70.3089C7.99645 62.8931 0.47583 52.9111 0.47583 41.9322C0.47583 19.0409 33.1698 0.483887 73.4999 0.483887C113.83 0.483887 146.524 19.0409 146.524 41.9322C146.524 52.9112 139.003 62.8931 126.727 70.3088L126.767 70.2975C130.749 66.7623 129.048 59.0682 123.38 52.4722C117.712 45.8762 110.4 43.2886 106.419 46.8237L107.423 45.5393C112.825 42.7375 116.029 39.2459 116.029 35.46C116.029 26.2314 96.988 18.7502 73.4999 18.7502C50.0118 18.7502 31.3393 26.1049 30.971 35.4601C30.8258 39.1455 34.0123 42.5576 39.1634 45.3217L40.0111 46.8912C36.0293 43.356 28.9137 46.3494 23.2852 51.9531C17.1298 58.0811 16.2508 66.7625 20.2326 70.2978L20.2731 70.3089Z" fill="#5CAD9A"/>
<path d="M37.8347 38.2296C38.7406 38.7655 39.7699 39.0485 40.8181 39.0497C41.8686 39.0497 42.8254 38.5536 42.8254 37.5618C42.8254 36.818 42.2815 36.3607 41.1183 35.7309C39.7859 35.0063 38.5102 33.9955 38.5102 32.3362C38.5102 29.7233 40.7241 28.1593 43.4823 28.1593C44.5125 28.1157 45.5374 28.3319 46.4654 28.7886L45.6214 31.0774C44.895 30.7032 44.0902 30.5134 43.276 30.5242C42.0001 30.5242 41.3435 31.1534 41.3435 31.8594C41.3435 32.6032 42.1128 33.08 43.1823 33.6903C44.7209 34.4911 45.6963 35.5402 45.6963 37.0849C45.6963 39.9459 43.37 41.4146 40.5554 41.4146C39.2872 41.4663 38.0309 41.1487 36.9343 40.4991L37.8347 38.2296Z" fill="white"/>
<path d="M51.9235 30.8122H48.5835L49.0526 28.4092H58.4525L58.0024 30.8122H54.6252L52.6743 41.2637H49.9726L51.9235 30.8122Z" fill="white"/>
<path d="M61.2462 37.8952L59.7639 41.2329H56.8745L63.0288 28.3782H66.4998L67.9821 41.2329H65.1301L64.8864 37.8952H61.2462ZM64.7735 35.7973L64.5108 33.0322C64.4733 32.3266 64.3981 31.2965 64.342 30.5146H64.3044C63.9856 31.2965 63.6289 32.2883 63.2911 33.0322L62.0341 35.7973H64.7735Z" fill="white"/>
<path d="M70.1743 41.2185L72.5759 28.3638H75.7464L77.4166 33.2655C77.9233 34.9055 78.2611 36.2407 78.561 37.6519H78.6175C78.707 36.1017 78.9014 34.5595 79.1992 33.0364L80.0622 28.3638H82.5948L80.1933 41.2185H77.398L75.6341 36.088C75.1392 34.6188 74.7258 33.1225 74.396 31.6062H74.3395C74.2079 32.8647 73.908 34.6956 73.533 36.7172L72.6886 41.2182L70.1743 41.2185Z" fill="white"/>
<path d="M86.5136 28.3638H89.1778L88.108 34.1047H88.1645C88.5399 33.5514 88.9338 33.0939 89.2902 32.636L92.7988 28.3638H96.1765L91.0542 33.9137L93.9811 41.2186H91.0542L88.9339 35.6305L87.5828 36.9274L86.7763 41.2186H84.1121L86.5136 28.3638Z" fill="white"/>
<path d="M104.336 35.8025H99.8509L99.2696 38.9116H104.316L103.885 41.2576H96.1174L98.519 28.4028H106.005L105.555 30.7488H100.789L100.264 33.4951H104.786L104.336 35.8025Z" fill="white"/>
<path d="M73.4998 15.0862C48.1744 15.0862 27.644 23.2245 27.644 33.2636C27.644 37.8692 32.0407 42.1184 39.1633 45.3216C34.1745 42.6417 31.1603 39.3115 31.1603 35.7605C31.1603 26.7395 50.1164 18.7777 73.4998 18.7777C96.8833 18.7777 115.839 26.7398 115.839 35.7605C115.839 39.3115 112.691 42.7134 107.702 45.3933C114.824 42.1903 119.356 37.8692 119.356 33.2636C119.356 23.2245 98.8252 15.0862 73.4998 15.0862Z" fill="white"/>
<path d="M73.4997 0C32.9718 0 0 18.8412 0 42.0002C0 65.1591 32.9718 84 73.4997 84C114.028 84 147 65.1591 147 42.0002C147 18.8412 114.028 0 73.4997 0ZM43.4903 51.7319C43.478 51.5463 43.4533 51.3676 43.4316 51.1877C44.8194 50.2922 46.4144 49.7834 48.0567 49.7121C48.8727 49.7013 49.6792 49.8915 50.4071 50.2665C51.0595 50.6408 51.6298 51.1466 52.0831 51.7528C52.5364 52.3589 52.8632 53.0528 53.0435 53.7919C53.0672 53.8723 53.0844 53.9577 53.106 54.0397C52.3094 54.9132 51.5905 55.8566 50.9577 56.859C48.3724 56.2681 45.8198 55.538 43.3107 54.6718C43.4872 53.7028 43.5475 52.7156 43.4903 51.7319ZM64.0917 59.8678C66.2104 60.0506 68.3646 60.1716 70.5543 60.2306C70.6736 62.5467 70.569 64.8691 70.2421 67.1645C67.8454 67.0962 65.4804 66.9542 63.1472 66.7386C63.7494 64.4987 64.0668 62.1897 64.0917 59.8678ZM63.5567 55.5187C64.7585 53.6184 66.0245 52.5771 67.0868 52.5771C67.1718 52.5772 67.2566 52.5836 67.3407 52.5964C67.6477 52.663 67.9384 52.7917 68.1954 52.9748C68.4525 53.158 68.6706 53.3918 68.8369 53.6625C69.6881 54.8496 70.2435 56.8318 70.4789 59.261C68.3092 59.2019 66.1726 59.0802 64.069 58.896C64.0251 57.7541 63.8532 56.6211 63.5567 55.5187ZM71.5172 60.2533C72.0177 60.2622 72.5199 60.2673 73.0238 60.2686V67.2103C72.4145 67.2077 71.8068 67.2006 71.2005 67.1889C71.5242 64.8926 71.6302 62.5701 71.5172 60.2533ZM75.7992 67.1889C75.1931 67.201 74.5854 67.2081 73.9761 67.2102V60.2686C74.4795 60.2664 74.9818 60.2613 75.4828 60.2532C75.3697 62.5701 75.4756 64.8926 75.7992 67.1889ZM75.9398 68.1532C75.9441 68.1802 75.9472 68.2068 75.9515 68.2339C76.314 70.555 76.8861 72.8373 77.6605 75.0517C76.4387 75.0934 75.2105 75.1158 73.9758 75.119V68.1778C74.6323 68.1751 75.287 68.1669 75.9398 68.1532ZM82.9079 59.868C82.9329 62.1901 83.2504 64.4993 83.8527 66.7393C81.5235 66.9535 79.1586 67.0952 76.7581 67.1643C76.4311 64.8689 76.3265 62.5465 76.4457 60.2304C78.6323 60.1728 80.7863 60.052 82.9079 59.868ZM76.5212 59.2612C76.7565 56.8319 77.3119 54.8497 78.1633 53.6627C78.3295 53.3922 78.5477 53.1583 78.8047 52.9752C79.0616 52.792 79.3522 52.6633 79.6592 52.5967C79.7433 52.5838 79.8283 52.5774 79.9134 52.5774C80.9756 52.5774 82.2414 53.6184 83.4431 55.5185C83.1465 56.6211 82.9745 57.7545 82.9306 58.8967C80.8302 59.0791 78.6938 59.2008 76.5212 59.2612ZM103.689 54.6733C101.18 55.5392 98.6273 56.269 96.042 56.8596C95.4091 55.857 94.69 54.9133 93.8932 54.0396C93.9148 53.9576 93.932 53.8723 93.9557 53.7918C94.1361 53.0528 94.463 52.3589 94.9164 51.7527C95.3697 51.1465 95.94 50.6407 96.5923 50.2662C97.3203 49.8914 98.1268 49.7013 98.9428 49.7121C100.585 49.7833 102.18 50.2921 103.568 51.1874C103.546 51.3674 103.522 51.5461 103.509 51.7317C103.452 52.7159 103.512 53.7038 103.689 54.6733ZM87.5246 75.3364C87.2893 77.7658 86.7338 79.7483 85.8825 80.9354C85.7164 81.2062 85.4983 81.4402 85.2413 81.6235C84.9843 81.8068 84.6936 81.9355 84.3866 82.0021C84.3026 82.0148 84.2178 82.0211 84.1329 82.0209C82.5872 82.0209 80.6127 79.8146 79.0303 75.9627C81.8929 75.8332 84.7178 75.6055 87.4895 75.2808C87.5012 75.2988 87.5128 75.318 87.5246 75.3364ZM85.2256 68.0743C85.1747 67.914 85.1301 67.7536 85.0821 67.5932C85.8171 67.5177 86.548 67.4353 87.2748 67.3458C87.5735 69.432 87.6931 71.5406 87.6321 73.6478C86.6427 71.8793 85.836 70.0118 85.2256 68.0743ZM86.6518 81.5057C87.5855 80.0047 88.1642 78.3041 88.3425 76.5375C90.296 79.2031 92.5248 80.9327 94.6321 81.2555C91.7372 81.755 88.7703 82.1521 85.7313 82.4467C86.0864 82.1857 86.3973 81.8676 86.6519 81.505L86.6518 81.5057ZM113.582 67.6788C112.146 66.6521 110.827 65.4669 109.647 64.1451C109.13 63.5668 108.652 62.9721 108.205 62.3684C109.475 61.8905 110.705 61.3859 111.896 60.8545C112.926 62.9483 113.638 65.1889 114.006 67.4998C113.865 67.5592 113.723 67.6187 113.582 67.6781V67.6788ZM114.175 69.2253C114.253 70.5125 114.118 71.8037 113.776 73.0456C113.596 73.7846 113.269 74.4785 112.815 75.0847C112.362 75.6909 111.792 76.1967 111.14 76.5712C110.412 76.946 109.605 77.1361 108.789 77.1253C106.256 77.1253 103.324 75.5314 100.7 72.9131C105.054 71.8583 109.323 70.4734 113.473 68.77C113.706 68.9272 113.94 69.078 114.175 69.2246L114.175 69.2253ZM107.633 61.5592C106.315 59.6667 105.35 57.5448 104.786 55.2987C105.674 54.9763 106.539 54.64 107.381 54.2897C108.883 55.8685 110.178 57.6388 111.232 59.5563C111.312 59.7022 111.386 59.8497 111.464 59.9964C110.229 60.5448 108.952 61.0657 107.633 61.5592ZM108.943 64.7955C110.035 66.0173 111.243 67.127 112.548 68.1087C108.678 69.6643 104.705 70.9417 100.659 71.9317C100.594 69.6022 100.242 67.2903 99.6097 65.0502C102.279 64.3716 104.838 63.5879 107.271 62.7098C107.792 63.4344 108.35 64.1306 108.943 64.7955ZM99.6934 71.8313C98.4696 70.4367 97.3989 68.9107 96.5004 67.2802C96.2538 66.8332 96.0265 66.3819 95.8097 65.9289C96.7798 65.725 97.7375 65.5079 98.683 65.2777C99.2819 67.4121 99.6213 69.613 99.6934 71.8313ZM99.6777 73.2514C99.6551 74.9173 99.2815 76.5589 98.5822 78.0657C98.3608 78.5647 98.0415 79.0125 97.6437 79.3815C97.2458 79.7505 96.778 80.0329 96.2689 80.2114C95.9663 80.3021 95.6523 80.3478 95.3368 80.3471C93.1477 80.3471 90.6553 78.3335 88.5455 75.15C92.2627 74.6837 95.9541 74.025 99.6052 73.1765C99.6293 73.2015 99.6535 73.2259 99.6777 73.2514ZM95.3994 65.0312C94.458 62.9208 93.8532 60.6715 93.6077 58.3678C94.2754 58.2352 94.9354 58.0954 95.5878 57.9487C96.7409 59.8913 97.666 61.9646 98.3442 64.1261C98.3683 64.2022 98.3888 64.2782 98.4123 64.3543C97.4219 64.5942 96.4176 64.8199 95.3994 65.0312ZM95.6698 67.7532C96.5747 69.3972 97.6462 70.9406 98.8667 72.3582C95.5485 73.1152 92.1047 73.7211 88.5697 74.1724C88.6704 71.8493 88.5531 69.5218 88.2192 67.2214C90.4766 66.9227 92.6857 66.5581 94.8466 66.1274C95.1017 66.6731 95.3736 67.2164 95.6698 67.7532ZM99.4242 78.5171C100.083 77.1489 100.476 75.6643 100.581 74.1448C103.018 76.4192 105.677 77.8287 108.131 78.0478C104.617 79.1265 101.051 80.0226 97.4468 80.7326C98.2962 80.1958 98.9811 79.4286 99.4242 78.5171ZM114.688 73.3224C115.008 72.1733 115.158 70.9822 115.133 69.7882C117.273 71.0441 119.685 71.7451 122.155 71.8293C122.584 71.8288 123.012 71.798 123.437 71.7374C120.041 73.5485 116.526 75.1172 112.915 76.432C113.756 75.5652 114.366 74.4951 114.688 73.3224ZM126.462 69.4271C125.238 70.4081 123.712 70.9164 122.155 70.8616C119.651 70.7632 117.215 70.0043 115.087 68.6595C115.072 68.4749 115.054 68.2886 115.034 68.1015C119.654 66.1146 124.006 63.5358 127.983 60.4275C128.433 61.8501 128.625 63.3437 128.551 64.8359C128.53 65.7058 128.334 66.5621 127.975 67.3519C127.615 68.1416 127.1 68.848 126.462 69.4271ZM114.9 67.1062C114.508 64.7977 113.79 62.559 112.766 60.4601C116.848 58.6377 120.649 56.224 124.05 53.2941C125.583 55.1285 126.804 57.2109 127.661 59.455C123.75 62.5553 119.461 65.1271 114.9 67.1062ZM112.335 59.6023C112.245 59.4292 112.157 59.2555 112.062 59.0834C111.031 57.2031 109.781 55.4561 108.338 53.8803C111.826 52.417 115.084 50.4441 118.01 48.024C120.004 49.2323 121.808 50.7374 123.362 52.4891C123.384 52.5136 123.404 52.5387 123.426 52.5633C120.084 55.4428 116.348 57.8139 112.335 59.6023ZM107.63 53.1444C106.708 52.224 105.697 51.401 104.612 50.6882C104.846 49.3366 105.53 48.1076 106.549 47.2064C107.772 46.2256 109.298 45.7174 110.855 45.7723C113.049 45.8433 115.195 46.4431 117.116 47.5223C114.232 49.8447 111.038 51.7377 107.63 53.1444ZM106.645 53.5559C105.977 53.8283 105.295 54.0923 104.598 54.3478C104.456 53.5058 104.41 52.65 104.459 51.7972C104.46 51.7854 104.462 51.7744 104.463 51.7626C105.233 52.3037 105.963 52.9032 106.645 53.5559ZM106.707 61.8926C104.365 62.7286 101.909 63.4733 99.3397 64.1269C99.309 64.0275 99.2824 63.9285 99.2508 63.8291C98.583 61.6997 97.6849 59.6522 96.5728 57.7242C99.0431 57.1481 101.483 56.4464 103.884 55.6216C104.46 57.8626 105.415 59.9847 106.707 61.8926ZM95.0477 57.0848C94.5529 57.1928 94.0539 57.2971 93.5506 57.3976C93.5241 56.6686 93.5588 55.9386 93.6545 55.2156C94.1546 55.8103 94.6198 56.4345 95.0477 57.0848ZM94.4454 65.2265C92.3723 65.635 90.2454 65.981 88.0777 66.2667C87.7132 63.9663 87.1409 61.7048 86.368 59.5112C88.524 59.2521 90.6269 58.9299 92.6766 58.5447C92.9281 60.8506 93.5246 63.1037 94.4454 65.2265ZM92.6078 57.578C90.4744 57.9806 88.2772 58.3151 86.0162 58.5814C85.5857 57.4776 85.0698 56.4103 84.4733 55.3895C84.6096 54.9568 84.7817 54.5367 84.9878 54.1336C85.2091 53.6347 85.5284 53.1871 85.9261 52.8182C86.3238 52.4494 86.7915 52.1671 87.3005 51.9887C87.6031 51.898 87.9171 51.8523 88.2326 51.853C89.7021 51.853 91.3081 52.7694 92.8442 54.3282C92.6339 55.3973 92.5544 56.489 92.6078 57.578ZM85.0381 58.6921C84.6595 58.7328 84.2805 58.773 83.899 58.8098C83.9326 58.1153 84.0123 57.424 84.1375 56.7404C84.4479 57.3342 84.7481 57.9846 85.0381 58.6921ZM85.4019 59.6247C86.1888 61.8188 86.7679 64.0842 87.1313 66.3901C86.3644 66.4842 85.5925 66.5701 84.8154 66.6479C84.2064 64.4116 83.8894 62.1036 83.8724 59.7833C84.3849 59.7344 84.8947 59.6816 85.4019 59.6247ZM84.1145 67.6849C84.1816 67.9133 84.2466 68.1416 84.3192 68.3707C84.9754 70.4608 85.8532 72.4722 86.9371 74.3695C84.2229 74.6766 81.4627 74.8901 78.6566 75.0099C77.8537 72.7792 77.2655 70.4746 76.9003 68.1285C79.3379 68.0565 81.7426 67.9086 84.1145 67.6849ZM78.0164 76.0052C79.3723 79.4387 81.1079 81.8773 82.8707 82.6905C79.9561 82.904 76.9912 83.0168 73.976 83.0287V76.087C75.33 76.0817 76.6767 76.0544 78.0164 76.0052ZM58.4299 74.1722C54.8948 73.7206 51.451 73.1144 48.133 72.358C49.3534 70.9403 50.4248 69.3969 51.3297 67.7529C51.6264 67.2149 51.8987 66.6711 52.1543 66.1247C54.3113 66.5557 56.5202 66.9208 58.781 67.2201C58.4469 69.521 58.3291 71.8487 58.4299 74.1722ZM58.4539 75.1493C56.3439 78.3329 53.8514 80.3466 51.6626 80.3463C51.3471 80.3471 51.0331 80.3014 50.7305 80.2106C50.2215 80.0321 49.7539 79.7498 49.3561 79.381C48.9584 79.0121 48.639 78.5645 48.4175 78.0657C47.7182 76.5587 47.3446 74.9168 47.3221 73.2507C47.3461 73.2256 47.3703 73.2011 47.3942 73.1756C51.0454 74.0243 54.7367 74.6828 58.4539 75.1493ZM51.6011 65.0285C50.5831 64.8172 49.5789 64.5913 48.5883 64.3509C48.6115 64.2759 48.6314 64.2008 48.6555 64.1257C49.334 61.9641 50.2593 59.8908 51.4126 57.9481C52.0662 58.0938 52.7248 58.2349 53.3925 58.3673C53.1471 60.6704 52.5421 62.9187 51.6011 65.0285ZM51.1911 65.9269C50.9736 66.3802 50.7462 66.8323 50.4993 67.2799C49.6009 68.9101 48.5303 70.4359 47.3067 71.8304C47.379 69.6114 47.7186 67.4098 48.3178 65.2747C49.2636 65.505 50.2212 65.7221 51.1911 65.9269ZM46.3409 71.9314C42.2946 70.9416 38.3217 69.6642 34.4515 68.1087C35.7571 67.1271 36.9647 66.0173 38.0569 64.7956C38.6506 64.1298 39.2093 63.4327 39.7308 62.7071C42.1632 63.585 44.7165 64.3653 47.3906 65.048C46.7585 67.2889 46.406 69.6012 46.3409 71.9314ZM39.3691 61.5555C38.049 61.0643 36.7716 60.5439 35.5372 59.9945C35.6142 59.8485 35.6881 59.7017 35.7683 59.5563C36.8225 57.6388 38.1169 55.8683 39.6193 54.2894C40.4604 54.6395 41.3252 54.9756 42.2138 55.2979C41.6495 57.5429 40.6854 59.6638 39.3691 61.5555ZM38.7968 62.3642C38.3493 62.9691 37.8702 63.5653 37.3524 64.1444C36.1731 65.4663 34.8533 66.6514 33.4174 67.6781C33.2762 67.6184 33.1343 67.5593 32.994 67.499C33.3621 65.1873 34.0735 62.946 35.1039 60.8516C36.2956 61.3816 37.5268 61.8858 38.7968 62.3642ZM33.527 68.7696C37.6765 70.473 41.9458 71.8579 46.2989 72.9126C43.6756 75.531 40.7434 77.1251 38.2106 77.1247C37.3946 77.1357 36.5882 76.9455 35.8602 76.5707C35.2078 76.1963 34.6375 75.6905 34.1842 75.0843C33.7308 74.478 33.4039 73.7841 33.2235 73.045C32.8818 71.8032 32.7469 70.5119 32.8246 69.2248C33.06 69.0781 33.294 68.9272 33.527 68.7696ZM46.4187 74.1446C46.5239 75.6641 46.9166 77.1488 47.5753 78.517C48.0183 79.4284 48.7032 80.1957 49.5525 80.7324C45.9487 80.0225 42.3828 79.1264 38.8687 78.0477C41.3227 77.8286 43.9813 76.4191 46.4187 74.1446ZM58.6572 76.537C58.8354 78.3036 59.4141 80.0041 60.3477 81.5051C60.6024 81.8675 60.9134 82.1853 61.2684 82.4462C58.2337 82.1535 55.2668 81.7564 52.3677 81.2549C54.4749 80.9322 56.7034 79.2026 58.6572 76.537ZM59.3675 73.6472C59.3065 71.5394 59.4261 69.4302 59.7251 67.3435C60.4519 67.4332 61.1828 67.5161 61.9179 67.5922C61.8699 67.7528 61.8251 67.9133 61.7742 68.0739C61.1636 70.0112 60.357 71.879 59.3675 73.6472ZM59.5102 75.2804C62.2818 75.6054 65.1068 75.833 67.9694 75.9623C66.3867 79.8144 64.4122 82.0209 62.8675 82.0205C62.7825 82.0207 62.6976 82.0144 62.6136 82.0018C62.3065 81.9352 62.0158 81.8064 61.7587 81.6231C61.5016 81.4399 61.2835 81.2059 61.1173 80.9351C60.2661 79.7478 59.7107 77.7655 59.4754 75.3361C59.4873 75.3173 59.4984 75.299 59.5102 75.2804ZM68.9829 76.0054C70.3225 76.0548 71.6694 76.0819 73.0238 76.0867V83.0286C70.0125 83.0175 67.0477 82.9048 64.1291 82.6904C65.8917 81.8774 67.6269 79.4389 68.9829 76.0054ZM73.0238 68.1779V75.1193C71.7898 75.1145 70.5614 75.0921 69.3386 75.052C70.1132 72.8375 70.6854 70.5551 71.048 68.2339C71.0524 68.2068 71.0555 68.1802 71.0598 68.1531C71.7127 68.1669 72.3673 68.1751 73.0238 68.1779ZM70.0997 68.1284C69.7343 70.4745 69.146 72.7791 68.343 75.0098C65.5414 74.891 62.7812 74.6776 60.0625 74.3693C61.1464 72.4721 62.0243 70.4607 62.6805 68.3705C62.7532 68.1413 62.8184 67.9127 62.8854 67.6838C65.2545 67.9065 67.6593 68.0547 70.0997 68.1284ZM62.1847 66.6473C61.408 66.5689 60.636 66.4826 59.8688 66.3885C60.2324 64.0831 60.8115 61.8182 61.5981 59.6246C62.1056 59.6808 62.6154 59.7337 63.1276 59.7833C63.1106 62.1034 62.7936 64.4113 62.1847 66.6473ZM61.9619 58.6919C62.2507 57.9846 62.5508 57.3342 62.8623 56.7409C62.9875 57.4242 63.0671 58.1153 63.1007 58.8095C62.7194 58.7728 62.3404 58.7327 61.9619 58.6919ZM60.9811 58.5808C58.7255 58.3158 56.5291 57.9814 54.392 57.5775C54.4454 56.4887 54.366 55.3974 54.1557 54.3284C55.6917 52.7698 57.2976 51.8535 58.7671 51.8535C59.0827 51.8527 59.3966 51.8984 59.6993 51.9891C60.2082 52.1675 60.676 52.4498 61.0737 52.8186C61.4714 53.1875 61.7907 53.6351 62.0119 54.134C62.2173 54.5354 62.3889 54.9536 62.525 55.3843C61.9279 56.4065 61.4116 57.4754 60.9811 58.5808ZM54.3232 58.5442C56.3686 58.9285 58.4709 59.2506 60.6299 59.5107C59.8585 61.7044 59.287 63.9656 58.9227 66.2656C56.7551 65.9797 54.6327 65.6324 52.5554 65.2237C53.4758 63.1016 54.0717 60.8492 54.3232 58.5442ZM51.9525 57.0841C52.3802 56.4339 52.8452 55.8099 53.3451 55.2154C53.4407 55.9381 53.4756 56.6679 53.4491 57.3967C52.9463 57.2961 52.4474 57.192 51.9525 57.0841ZM50.4273 57.7237C49.3151 59.6519 48.4169 61.6997 47.7492 63.8294C47.7179 63.9282 47.6912 64.0265 47.6609 64.1252C45.097 63.475 42.6417 62.73 40.2951 61.8902C41.5861 59.9827 42.5405 57.8613 43.1155 55.6209C45.5166 56.4457 47.957 57.1475 50.4273 57.7237ZM42.4013 54.3471C41.7038 54.0923 41.022 53.8284 40.356 53.5554C41.0376 52.9031 41.7666 52.3039 42.5368 51.7631C42.5376 51.7746 42.5396 51.7853 42.5404 51.7969C42.59 52.6496 42.5433 53.5052 42.4013 54.3471ZM39.3708 53.1436C35.9621 51.7371 32.7677 49.8443 29.884 47.5222C31.8052 46.4431 33.9512 45.8433 36.1451 45.7723C37.7021 45.7176 39.2278 46.2259 40.451 47.2068C41.4696 48.1079 42.1533 49.3369 42.3878 50.6887C41.3031 51.4011 40.2922 52.2236 39.3708 53.1436ZM38.6617 53.8797C37.2189 55.4557 35.9685 57.2029 34.9377 59.0834C34.8433 59.2545 34.7561 59.4275 34.6659 59.5994C30.6529 57.8121 26.9165 55.4421 23.5733 52.5636C23.5952 52.539 23.6154 52.5136 23.6374 52.4891C25.1917 50.7376 26.9955 49.2326 28.9885 48.0244C31.9155 50.4442 35.1742 52.4167 38.6617 53.8797ZM34.2351 60.4572C33.2108 62.5571 32.4916 64.7969 32.1 67.1067C27.539 65.1277 23.2497 62.556 19.3393 59.4558C20.196 57.2117 21.4162 55.1293 22.9494 53.2948C26.3514 56.2236 30.1528 58.6361 34.2351 60.4572ZM31.966 68.1018C31.9459 68.2889 31.9274 68.4751 31.9133 68.6595C29.7848 70.0043 27.3487 70.7632 24.8445 70.8616C23.2875 70.9165 21.7619 70.4082 20.5389 69.4271C19.8999 68.8481 19.3848 68.1418 19.0254 67.3521C18.666 66.5623 18.47 65.7059 18.4495 64.836C18.3752 63.3438 18.5673 61.8503 19.0166 60.4277C22.9938 63.5359 27.3456 66.1152 31.966 68.1018ZM24.8447 71.8291C27.3145 71.7449 29.7265 71.0439 31.8667 69.7881C31.8419 70.9821 31.9919 72.1732 32.3117 73.3223C32.6333 74.4947 33.2431 75.5646 34.0836 76.4315C30.4738 75.1167 26.9584 73.5481 23.5629 71.7371C23.9875 71.7978 24.4159 71.8286 24.8447 71.8291ZM128.17 68.9431C128.973 67.747 129.434 66.3477 129.5 64.9013C129.771 60.8301 127.739 55.9466 124.067 51.8385C120.189 47.4997 115.126 44.8045 110.855 44.8045C109.074 44.7481 107.331 45.3367 105.937 46.4654C104.833 47.426 104.065 48.7231 103.745 50.1636C102.286 49.2894 100.635 48.8013 98.9429 48.7441C97.9746 48.7331 97.018 48.9607 96.155 49.4072C94.6825 50.2351 93.5938 51.6234 93.1281 53.2671C91.5176 51.7581 89.8262 50.886 88.2327 50.886C87.8251 50.8852 87.4196 50.9444 87.0288 51.062C86.399 51.2782 85.8188 51.6219 85.3232 52.0724C84.8277 52.523 84.4272 53.0709 84.1458 53.6832C84.0299 53.9068 83.9236 54.1429 83.824 54.387C82.4597 52.4567 80.9553 51.418 79.5175 51.64C79.0852 51.723 78.674 51.8947 78.309 52.1445C77.9439 52.3942 77.6327 52.7169 77.3943 53.0928C76.4265 54.4425 75.8034 56.6216 75.5561 59.284C75.0312 59.2937 74.5046 59.2995 73.9764 59.3012V51.7716H73.0241V59.3009C72.4961 59.2986 71.9696 59.2929 71.4446 59.2836C71.1973 56.6214 70.5743 54.4422 69.6064 53.0924C69.3679 52.7164 69.0567 52.3938 68.6916 52.144C68.3265 51.8942 67.9152 51.7226 67.4828 51.6396C66.0403 51.4177 64.5364 52.4544 63.1742 54.3814C63.0752 54.1392 62.9696 53.9051 62.8542 53.6831C62.5726 53.0709 62.172 52.5231 61.6764 52.0726C61.1809 51.6221 60.6007 51.2783 59.9709 51.0619C59.5801 50.9444 59.1746 50.8851 58.7671 50.886C57.1735 50.886 55.4823 51.7581 53.8719 53.267C53.4063 51.6235 52.3177 50.2352 50.8453 49.4075C49.9821 48.9608 49.0253 48.7333 48.0567 48.7444C46.3644 48.8016 44.7133 49.2896 43.2548 50.1639C42.9353 48.7234 42.1667 47.4263 41.0635 46.4657C39.6695 45.337 37.9264 44.7483 36.1451 44.8045C31.8735 44.8045 26.8109 47.4996 22.933 51.8385C19.2602 55.9466 17.2291 60.83 17.4996 64.9013C17.5665 66.3476 18.0269 67.7467 18.8295 68.9429C7.70192 61.7294 0.95194 52.3023 0.95194 42.0002C0.95194 19.3749 33.4967 0.967908 73.4997 0.967908C113.503 0.967908 146.048 19.3751 146.048 42.0002C146.048 52.3026 139.298 61.7295 128.17 68.9431Z" fill="#357466"/>
</g>
<defs>
<clipPath id="clip0_307_41">
<rect width="147" height="84" fill="white"/>
</clipPath>
</defs>
</svg>
