<svg width="60" height="60" viewBox="0 0 60 60" fill="none" xmlns="http://www.w3.org/2000/svg">
<path d="M30 0C24.0666 0 18.2664 1.75947 13.3329 5.05591C8.39943 8.35235 4.55426 13.0377 2.28363 18.5195C0.0129986 24.0013 -0.581102 30.0333 0.576455 35.8527C1.73401 41.6721 4.59123 47.0176 8.78681 51.2132C12.9824 55.4088 18.3279 58.266 24.1473 59.4236C29.9667 60.5811 35.9987 59.987 41.4805 57.7164C46.9623 55.4458 51.6477 51.6006 54.9441 46.6671C58.2405 41.7336 60 35.9334 60 30C59.991 22.0463 56.8274 14.4209 51.2032 8.79679C45.5791 3.17266 37.9537 0.00905177 30 0ZM36.0669 4.6986L33.8918 13.7736C31.3349 13.1378 28.6611 13.1383 26.1043 13.7749L23.9334 4.6987C27.9208 3.73683 32.0795 3.7368 36.0669 4.6986ZM3.97741 30C3.9782 27.9465 4.22264 25.9002 4.70561 23.9043L13.8309 25.8843C13.1182 28.5835 13.1188 31.4214 13.8326 34.1203L4.70551 36.0965C4.22264 34.1003 3.97823 32.0538 3.97741 30ZM17.274 30C17.274 27.483 18.0204 25.0226 19.4187 22.9298C20.8171 20.837 22.8046 19.2059 25.13 18.2427C27.4554 17.2795 30.0141 17.0275 32.4827 17.5185C34.9513 18.0096 37.2189 19.2216 38.9987 21.0014C40.7784 22.7811 41.9905 25.0487 42.4815 27.5173C42.9725 29.9859 42.7205 32.5447 41.7573 34.87C40.7941 37.1954 39.163 39.1829 37.0702 40.5813C34.9774 41.9796 32.517 42.726 30 42.726C26.626 42.7223 23.3913 41.3803 21.0055 38.9945C18.6197 36.6088 17.2777 33.374 17.274 30ZM20.1366 5.9246L22.3476 15.17C19.3442 16.725 16.8797 19.1498 15.2761 22.1276L5.93871 20.1016C7.25604 16.9206 9.18828 14.0308 11.6247 11.598C14.061 9.16522 16.9536 7.23724 20.1366 5.9246ZM30 56.0226C24.8442 56.0169 19.806 54.4819 15.5229 51.6118C11.2398 48.7417 7.9044 44.6656 5.93871 39.8992L15.2778 37.8769C16.511 40.1868 18.2703 42.1742 20.4134 43.6787C22.5565 45.1831 25.0234 46.1625 27.6149 46.5376C30.2063 46.9126 32.8497 46.673 35.3314 45.8379C37.8131 45.0028 40.0637 43.5957 41.9012 41.7303C43.7388 39.8649 45.1118 37.5935 45.9095 35.0995C46.7072 32.6055 46.9071 29.9588 46.493 27.3733C46.079 24.7878 45.0627 22.3359 43.5262 20.2156C41.9896 18.0954 39.976 16.3663 37.6478 15.1679L39.8638 5.924C45.4428 8.20906 50.0553 12.3605 52.9129 17.6691C55.7706 22.9777 56.6962 29.1138 55.5316 35.0291C54.3669 40.9444 51.1843 46.2717 46.5275 50.1008C41.8708 53.9298 36.0289 56.023 30 56.0226Z" fill="#357466"/>
</svg>
