<svg width="60" height="60" viewBox="0 0 60 60" fill="none" xmlns="http://www.w3.org/2000/svg">
<path d="M30.0003 9.93541e-07C24.9544 -0.00129764 19.9898 1.27048 15.566 3.69758C11.1422 6.12469 7.40228 9.62867 4.69243 13.8851C1.98258 18.1416 0.390419 23.0129 0.0633458 28.0482C-0.263727 33.0835 0.684861 38.1198 2.82129 42.6911C2.31559 42.7923 1.80279 42.8733 1.28339 42.9311C1.00218 42.9623 0.73637 43.0756 0.519041 43.2567C0.301712 43.4379 0.142466 43.679 0.0611281 43.95C-0.0202097 44.221 -0.0200468 44.5099 0.0615963 44.7808C0.14324 45.0517 0.302757 45.2926 0.52029 45.4735L0.83109 45.7319C2.66675 47.2569 4.757 48.4462 7.00579 49.2452C10.2439 53.1139 14.4057 56.1034 19.1058 57.9368C23.8059 59.7703 28.8926 60.3885 33.895 59.7344C38.8975 59.0803 43.6542 57.1748 47.7248 54.1945C51.7955 51.2141 55.0486 47.2551 57.1831 42.6838C59.3176 38.1125 60.2645 33.0767 59.9363 28.0423C59.608 23.0079 58.0152 18.1377 55.3052 13.8823C52.5952 9.62686 48.8555 6.12379 44.4324 3.69723C40.0092 1.27067 35.0454 -0.000966599 30.0003 9.93541e-07ZM50.8079 47.3662C49.0011 45.6207 46.9828 44.1083 44.8003 42.8642C47.6576 34.5242 47.6625 25.4711 44.814 17.1281C46.9914 15.8856 49.005 14.3759 50.808 12.6341C54.883 17.5034 57.1158 23.6507 57.1158 30.0002C57.1158 36.3496 54.8829 42.4969 50.8079 47.3662ZM31.4427 57.0771V49.612C31.9866 49.7619 32.5577 49.7842 33.1116 49.6771C33.6656 49.5701 34.1873 49.3366 34.6362 48.9949C35.0851 48.6531 35.449 48.2124 35.6997 47.707C35.9503 47.2015 36.0809 46.6451 36.0812 46.0809V42.54C37.8378 42.9395 39.5495 43.5154 41.1903 44.2591C39.1837 49.0798 36.1846 53.424 32.3883 57.0091C32.0746 57.0365 31.7593 57.0603 31.4427 57.0771ZM27.6127 57.0091C25.1306 54.6679 22.9836 51.9952 21.2327 49.0667C21.7027 48.8852 22.168 48.6867 22.6274 48.4691L27.3736 46.2139L28.5579 47.3982V57.0771C28.2413 57.0603 27.9266 57.0371 27.6127 57.0091ZM27.5539 2.996C27.8871 2.966 28.2217 2.9407 28.5579 2.9229V18.1009C25.1839 17.9284 21.8724 17.1236 18.7956 15.7282C20.7916 10.9179 23.7754 6.58023 27.5539 2.996ZM16.2289 14.3929C14.3928 13.3052 12.6909 12.0056 11.1582 10.5207C14.4047 7.37369 18.3866 5.08839 22.7416 3.8727C20.0407 7.02225 17.8438 10.571 16.2289 14.3929ZM32.4467 2.996C36.2264 6.58137 39.2108 10.9207 41.2067 15.7329C38.1292 17.1276 34.8167 17.931 31.4422 18.1011V2.9229C31.7787 2.9407 32.1135 2.9662 32.4467 2.996ZM37.259 3.8726C41.6144 5.08851 45.5966 7.37416 48.8433 10.5216C47.3106 12.0069 45.6086 13.3068 43.7724 14.3947C42.1575 10.5721 39.9603 7.02262 37.259 3.8726ZM44.0623 29.9749C44.0593 33.9072 43.4304 37.8141 42.1992 41.5487C40.237 40.6755 38.1856 40.0183 36.0812 39.5887V28.6519C36.0801 27.681 35.694 26.7502 35.0074 26.0637C34.3209 25.3772 33.3902 24.9911 32.4193 24.99H31.4427V20.9892C35.16 20.8204 38.8128 19.9575 42.2127 18.4451C43.4347 22.1665 44.059 26.058 44.0623 29.9749ZM28.5582 20.9895V24.99H16.2803C16.5848 22.7656 17.0898 20.5734 17.7894 18.44C21.1887 19.9536 24.8411 20.8183 28.5582 20.9895ZM17.7755 34.2771L17.8995 34.0158C18.0271 33.7469 18.0685 33.4451 18.0178 33.1517C17.9672 32.8584 17.827 32.5879 17.6166 32.3774L14.4403 29.2016C14.3315 29.0929 14.2575 28.9544 14.2275 28.8035C14.1974 28.6527 14.2129 28.4964 14.2718 28.3543C14.3306 28.2122 14.4303 28.0908 14.5582 28.0055C14.6862 27.9201 14.8365 27.8746 14.9903 27.8747H32.4193C32.6254 27.8749 32.823 27.9569 32.9687 28.1027C33.1145 28.2484 33.1965 28.446 33.1967 28.6521V46.0809C33.1968 46.2347 33.1513 46.385 33.0659 46.5129C32.9805 46.6409 32.8591 46.7406 32.7171 46.7994C32.575 46.8583 32.4187 46.8737 32.2679 46.8437C32.117 46.8137 31.9785 46.7397 31.8698 46.6309L28.694 43.4551C28.4834 43.2446 28.2129 43.1043 27.9194 43.0537C27.626 43.003 27.3241 43.0444 27.0551 43.1722L21.3903 45.8638C18.8029 47.0865 15.9563 47.6592 13.0974 47.5323C10.2385 47.4053 7.45376 46.5825 4.98499 45.1352C7.7689 44.3441 10.351 42.9657 12.5573 41.0927C14.7636 39.2197 16.543 36.8957 17.7755 34.2771ZM13.8935 50.4329C15.4094 50.4328 16.9205 50.2642 18.3991 49.93C19.665 52.1357 21.1379 54.2159 22.7979 56.1425C18.8417 55.0481 15.1859 53.0688 12.1068 50.3543C12.7003 50.4062 13.2959 50.4324 13.8935 50.4329ZM43.7561 45.5954C45.5986 46.6853 47.3063 47.9886 48.8436 49.4784C45.5829 52.6394 41.5804 54.9309 37.2036 56.1425C39.9209 52.9874 42.1314 49.4293 43.7561 45.5954ZM2.88479 30C2.8791 23.6491 5.11293 17.4996 9.19339 12.633C10.9969 14.3736 13.0107 15.8822 15.1881 17.1237C14.276 19.8061 13.6509 22.5776 13.3233 25.3918C12.8092 25.6546 12.3645 26.0353 12.0256 26.5028C11.6867 26.9703 11.4631 27.5113 11.3732 28.0817C11.2832 28.652 11.3295 29.2356 11.5081 29.7847C11.6867 30.3338 11.9927 30.8328 12.401 31.2411L13.1041 31.9442C13.1695 33.2585 13.2999 34.5633 13.4954 35.8584C11.5155 38.5884 8.78211 40.6813 5.63029 41.8808C3.81949 38.1823 2.88029 34.118 2.88479 30Z" fill="#357466"/>
</svg>
