<svg width="60" height="60" viewBox="0 0 60 60" fill="none" xmlns="http://www.w3.org/2000/svg">
<path d="M44.7594 11.7947C48.4081 11.7947 51.374 9.1506 51.374 5.8972C51.374 2.6438 48.4081 0 44.7594 0C41.1107 0 38.1414 2.6444 38.1414 5.8975C38.1414 9.1506 41.1109 11.7947 44.7594 11.7947Z" fill="#357466"/>
<path d="M23.3823 20.062C23.3823 23.3143 26.3507 25.9594 30 25.9594C33.6493 25.9594 36.6148 23.3146 36.6148 20.062C36.6148 16.8094 33.6493 14.1646 30.0001 14.1646C26.3509 14.1646 23.3823 16.81 23.3823 20.062Z" fill="#357466"/>
<path d="M15.6121 11.7947C19.26 11.7947 22.2267 9.1506 22.2267 5.8972C22.2267 2.6438 19.26 0 15.6121 0C11.9621 0 8.99438 2.6444 8.99438 5.8975C8.99438 9.1506 11.9626 11.7947 15.6121 11.7947Z" fill="#357466"/>
<path d="M59.5524 6.40991C59.2517 6.15232 58.8688 6.01074 58.4729 6.01074C58.0769 6.01074 57.694 6.15232 57.3933 6.40991L44.2375 18.1371L31.0811 6.40991C30.7804 6.15232 30.3975 6.01074 30.0016 6.01074C29.6056 6.01074 29.2227 6.15232 28.922 6.40991L15.765 18.1371L2.6071 6.40991C2.3064 6.15232 1.9235 6.01074 1.52755 6.01074C1.1316 6.01074 0.748702 6.15232 0.447999 6.40991C0.307683 6.52794 0.194878 6.67523 0.117489 6.84145C0.0400998 7.00767 0 7.18881 0 7.37216C0 7.55552 0.0400998 7.73665 0.117489 7.90288C0.194878 8.0691 0.307683 8.21638 0.447999 8.33441L14.238 20.6244V58.6375C14.261 59.0201 14.4345 59.3781 14.7207 59.6331C15.0069 59.8881 15.3824 60.0195 15.7651 59.9984C16.1478 60.0194 16.5232 59.888 16.8093 59.633C17.0954 59.378 17.2689 59.0201 17.2919 58.6375V23.3467L28.4747 33.3133V58.636C28.5179 59.0107 28.6973 59.3564 28.9788 59.6074C29.2604 59.8583 29.6243 59.997 30.0015 59.997C30.3787 59.997 30.7426 59.8583 31.0242 59.6074C31.3057 59.3564 31.4851 59.0107 31.5283 58.636V33.316L42.71 23.3482V58.6388C42.7532 59.0135 42.9326 59.3592 43.2141 59.6102C43.4957 59.8611 43.8596 59.9998 44.2368 59.9998C44.614 59.9998 44.9779 59.8611 45.2595 59.6102C45.541 59.3592 45.7204 59.0135 45.7636 58.6388V20.6248L59.552 8.33481C59.6923 8.21672 59.805 8.0694 59.8824 7.90317C59.9597 7.73694 59.9998 7.55581 59.9999 7.37245C59.9999 7.1891 59.9599 7.00796 59.8826 6.84169C59.8053 6.67543 59.6926 6.52806 59.5524 6.40991ZM30 30.8253L17.9218 20.0619L23.9609 14.6799L30 9.29701L42.0769 20.0619L30 30.8253Z" fill="#357466"/>
</svg>
