<svg width="61" height="61" viewBox="0 0 61 61" fill="none" xmlns="http://www.w3.org/2000/svg">
<path d="M28.4153 37.2453C28.1582 36.4592 28.1644 35.6108 28.4328 34.8286C28.7012 34.0463 29.2173 33.3729 29.9028 32.9103C30.5809 32.419 31.3954 32.1516 32.2328 32.1453C33.049 32.1447 33.8423 32.4156 34.4878 32.9153C34.2444 32.0997 33.7438 31.3847 33.0608 30.8769C32.3778 30.3692 31.5489 30.0959 30.6978 30.0978C29.8803 30.0977 29.0835 30.3548 28.4203 30.8328C27.9099 31.1971 27.4938 31.6779 27.2065 32.2353C26.9193 32.7928 26.7692 33.4107 26.7687 34.0377C26.7682 34.6648 26.9174 35.2829 27.2037 35.8408C27.4901 36.3987 27.9054 36.8802 28.4153 37.2453ZM35.0128 53.3303C39.8592 54.7776 44.4123 57.0685 48.4628 60.0978L60.0978 51.8003C57.0778 47.5703 57.9103 44.6103 54.9103 40.4053C53.7503 38.7753 52.6978 37.6953 50.9978 37.6953C50.5153 37.7111 50.0355 37.7739 49.5653 37.8828L50.6203 39.3628C50.6833 39.4511 50.7283 39.5509 50.7528 39.6567C50.7772 39.7624 50.7806 39.8719 50.7627 39.9789C50.7448 40.0859 50.706 40.1884 50.6486 40.2804C50.5911 40.3724 50.5161 40.4522 50.4278 40.5153C50.3394 40.5783 50.2396 40.6233 50.1339 40.6478C50.0281 40.6722 49.9187 40.6756 49.8116 40.6577C49.7046 40.6398 49.6022 40.6011 49.5101 40.5436C49.4181 40.4861 49.3383 40.4111 49.2753 40.3228L48.3328 39.0028C48.1994 38.8162 48.0234 38.6643 47.8195 38.5595C47.6156 38.4547 47.3895 38.4001 47.1603 38.4003C46.3319 38.4996 45.5138 38.671 44.7153 38.9128L45.9978 40.7078C46.0606 40.7961 46.1055 40.8959 46.1298 41.0016C46.1541 41.1072 46.1573 41.2166 46.1393 41.3235C46.1213 41.4304 46.0825 41.5327 46.0249 41.6246C45.9674 41.7165 45.8923 41.7962 45.804 41.859C45.7157 41.9219 45.6159 41.9668 45.5102 41.991C45.4046 42.0153 45.2952 42.0186 45.1883 42.0006C45.0814 41.9826 44.979 41.9437 44.8872 41.8862C44.7953 41.8286 44.7156 41.7536 44.6528 41.6653L43.5428 40.1103C43.41 39.9243 43.2349 39.7726 43.0319 39.6679C42.8288 39.5631 42.6037 39.5082 42.3753 39.5078C41.5168 39.6216 40.6713 39.8175 39.8503 40.0928L41.2078 41.9903C41.3351 42.1686 41.3863 42.3903 41.3502 42.6064C41.3141 42.8225 41.1936 43.0155 41.0153 43.1428C40.8369 43.2701 40.6153 43.3213 40.3991 43.2852C40.183 43.2491 39.9901 43.1286 39.8628 42.9503L34.3678 35.2578C34.1956 35.0163 33.9775 34.8111 33.726 34.6539C33.4745 34.4967 33.1945 34.3906 32.902 34.3416C32.6095 34.2926 32.3102 34.3018 32.0212 34.3684C31.7322 34.4351 31.4592 34.5581 31.2178 34.7303C30.9763 34.9025 30.7711 35.1205 30.6139 35.372C30.4567 35.6235 30.3506 35.9035 30.3016 36.196C30.2526 36.4885 30.2617 36.7878 30.3284 37.0768C30.3951 37.3658 30.5181 37.6388 30.6903 37.8803L38.8053 49.2553C36.6303 48.4503 33.2628 48.0978 32.6378 50.3553C32.2653 51.7003 33.3428 52.7703 35.0128 53.3303ZM22.5978 15.0978H32.5978V25.3203C31.9756 25.18 31.3405 25.1054 30.7028 25.0978H30.6978C28.978 25.0912 27.294 25.589 25.8543 26.5297C24.4146 27.4704 23.2824 28.8126 22.5978 30.3903V15.0978ZM29.0028 55.0278L27.5978 55.0978C21.8934 55.1079 16.3265 53.347 11.6657 50.0582C7.00486 46.7693 3.47988 42.1148 1.57736 36.737C-0.325157 31.3592 -0.511381 25.5235 1.0444 20.0354C2.60017 14.5473 5.82122 9.67744 10.2629 6.09814C14.7046 2.51884 20.1478 0.406593 25.8412 0.0529936C31.5346 -0.300605 37.1974 1.12188 42.0478 4.12408C46.8983 7.12628 50.6971 11.5601 52.92 16.8136C55.1429 22.067 55.6802 27.8809 54.4578 33.4528C53.3722 32.9522 52.1907 32.6938 50.9953 32.6953C50.4799 32.6977 49.9656 32.7429 49.4578 32.8303C50.5423 28.2852 50.1842 23.5152 48.433 19.1832C46.6818 14.8511 43.6246 11.1721 39.6863 8.65748C35.748 6.14289 31.1241 4.91758 26.4574 5.15186C21.7906 5.38613 17.3127 7.06834 13.646 9.96471C9.97934 12.8611 7.30597 16.8277 5.99745 21.3134C4.68893 25.7991 4.81026 30.581 6.34457 34.9946C7.87889 39.4081 10.75 43.2341 14.5588 45.9408C18.3677 48.6475 22.9251 50.1005 27.5978 50.0978H27.6253C27.4405 51.8565 27.9331 53.6195 29.0028 55.0278Z" fill="#F49B52"/>
</svg>
